<?xml version="1.0" standalone="no"?>
<!DOCTYPE svg PUBLIC "-//W3C//DTD SVG 20010904//EN"
 "http://www.w3.org/TR/2001/REC-SVG-20010904/DTD/svg10.dtd">
<svg version="1.0" xmlns="http://www.w3.org/2000/svg"
 width="500.000000pt" height="500.000000pt" viewBox="0 0 500.000000 500.000000"
 preserveAspectRatio="xMidYMid meet">
<metadata>
Created by potrace 1.14, written by Peter Selinger 2001-2017
</metadata>
<g transform="translate(0.000000,500.000000) scale(0.100000,-0.100000)"
fill="#000000" stroke="none">
<path d="M3100 4134 c-36 -6 -87 -15 -115 -18 -27 -4 -102 -15 -165 -26 -63
-10 -133 -21 -155 -25 -22 -3 -65 -10 -95 -15 -30 -5 -77 -12 -105 -15 -27 -4
-57 -8 -65 -10 -8 -2 -35 -7 -60 -10 -57 -8 -98 -14 -130 -20 -14 -3 -41 -7
-60 -10 -19 -3 -60 -10 -90 -15 -30 -5 -73 -11 -95 -15 -22 -3 -51 -7 -65 -10
-14 -2 -41 -6 -60 -9 -87 -13 -117 -17 -140 -21 -14 -3 -41 -7 -60 -10 -19 -3
-60 -10 -90 -15 -30 -5 -75 -12 -100 -15 -25 -3 -52 -7 -60 -10 -14 -4 -70
-12 -135 -21 -16 -2 -70 -10 -120 -18 -49 -8 -108 -18 -130 -21 -54 -7 -224
-35 -258 -41 l-27 -6 0 -879 0 -879 -27 -1 c-57 -1 -218 -11 -220 -13 -1 -1
-5 -89 -8 -196 -3 -107 -8 -282 -11 -387 -2 -106 -4 -193 -2 -193 2 -1 21 -3
43 -6 147 -19 189 -25 192 -27 2 -2 5 -50 8 -107 3 -57 7 -105 9 -107 4 -4
1376 -15 2156 -17 431 -1 588 3 740 19 19 2 78 6 130 10 52 3 111 8 130 10 19
2 78 6 130 10 52 4 111 8 130 10 19 2 78 6 130 10 52 4 109 9 125 10 17 2 40
3 53 4 l22 1 -5 277 c-7 414 -14 813 -20 1131 l-5 283 36 -7 35 -6 -5 543 c-3
298 -9 546 -13 550 -5 4 -33 21 -63 37 -30 16 -89 47 -130 69 -231 125 -253
135 -290 128 -19 -4 -45 -9 -57 -11 -13 -2 -35 -6 -50 -9 -16 -3 -46 -7 -68
-10 -73 -9 -150 -28 -135 -32 15 -5 30 -11 120 -51 247 -108 233 -100 228
-130 -3 -19 -9 -18 -97 24 -51 24 -95 44 -96 44 -2 0 -36 15 -77 34 -40 18
-181 83 -314 144 -132 61 -249 110 -260 110 -11 -1 -49 -7 -84 -14z"/>
</g>
</svg>
